<svg width="21" height="20" viewBox="0 0 21 20" fill="none" xmlns="http://www.w3.org/2000/svg">
<path d="M17.875 0H2.93746C2.3715 0 1.82873 0.210714 1.42854 0.585786C1.02835 0.960859 0.803528 1.46957 0.803528 2V15C0.803528 15.5304 1.02835 16.0391 1.42854 16.4142C1.82873 16.7893 2.3715 17 2.93746 17H7.20531L10.4062 20L13.6071 17H17.875C18.4409 17 18.9837 16.7893 19.3839 16.4142C19.7841 16.0391 20.0089 15.5304 20.0089 15V2C20.0089 1.46957 19.7841 0.960859 19.3839 0.585786C18.9837 0.210714 18.4409 0 17.875 0ZM10.4062 3C12.2489 3 13.6071 4.272 13.6071 6C13.6071 7.728 12.2489 9 10.4062 9C8.56463 9 7.20531 7.728 7.20531 6C7.20531 4.272 8.56463 3 10.4062 3ZM5.26024 14C5.8556 12.277 7.92338 11 10.4062 11C12.889 11 14.9579 12.277 15.5522 14H5.26024Z" fill="white"/>
</svg>
